<?xml version="1.0" encoding="UTF-8" standalone="no"?><!DOCTYPE svg PUBLIC "-//W3C//DTD SVG 1.1//EN" "http://www.w3.org/Graphics/SVG/1.1/DTD/svg11.dtd"><svg width="100%" height="100%" viewBox="0 0 529 350" version="1.1" xmlns="http://www.w3.org/2000/svg" xmlns:xlink="http://www.w3.org/1999/xlink" xml:space="preserve" style="fill-rule:evenodd;clip-rule:evenodd;stroke-linecap:round;stroke-linejoin:round;stroke-miterlimit:1.5;"><g><rect x="219.335" y="2" width="290.166" height="111.709" style="fill:#00a282;stroke:#007b63;stroke-width:4px;stroke-dasharray:8,16,8,0;"/><g transform="matrix(0.474429,0,0,0.323283,147.098,-18.9295)"><g transform="matrix(2.1078,0,0,3.09327,-336.486,-415.94)"><text x="303.743px" y="216.535px" style="font-family:'Lato-Bold', 'Lato', sans-serif;font-weight:700;font-size:24px;fill:none;">HelloService</text></g><g transform="matrix(2.1078,0,0,3.09327,-336.486,-415.94)"><text x="303.743px" y="216.535px" style="font-family:'Lato-Bold', 'Lato', sans-serif;font-weight:700;font-size:24px;">HelloService</text></g></g></g><rect x="2" y="148.553" width="524.033" height="198.703" style="fill:#3b8ab7;stroke:#3386f3;stroke-width:4px;"/><g><rect x="51.136" y="175.268" width="131.609" height="111.709" style="fill:#5ea5cb;stroke:#3386f3;stroke-width:4px;"/><g transform="matrix(0.263895,0,0,0.434812,-3.94089,127.849)"><g transform="matrix(3.78939,0,0,2.29984,-847.258,-258.283)"><text x="303.743px" y="216.535px" style="font-family:'Lato-Bold', 'Lato', sans-serif;font-weight:700;font-size:24px;fill:none;">Aspect</text></g><g transform="matrix(3.78939,0,0,2.29984,-847.258,-258.283)"><text x="303.743px" y="216.535px" style="font-family:'Lato-Bold', 'Lato', sans-serif;font-weight:700;font-size:24px;">Aspect</text></g></g></g><g><rect x="219.335" y="175.268" width="290.166" height="111.709" style="fill:#00a282;stroke:#007b63;stroke-width:4px;"/><g transform="matrix(0.716738,0,0,0.434812,36.105,127.849)"><g transform="matrix(1.39521,0,0,2.29984,-120.042,-258.283)"><text x="303.743px" y="216.535px" style="font-family:'Lato-Bold', 'Lato', sans-serif;font-weight:700;font-size:24px;fill:none;">DefaultHelloService</text></g><g transform="matrix(1.39521,0,0,2.29984,-120.042,-258.283)"><text x="303.743px" y="216.535px" style="font-family:'Lato-Bold', 'Lato', sans-serif;font-weight:700;font-size:24px;">DefaultHelloService</text></g></g></g><g transform="matrix(14.3333,0,0,1.67532,-5381.12,-10.4313)"><g transform="matrix(0.116883,0,0,1,332.052,0)"><text x="376px" y="204.832px" style="font-family:'Lato-Bold', 'Lato', sans-serif;font-weight:700;font-size:24px;fill:none;">Pro<tspan x="413.728px 426.688px " y="204.832px 204.832px ">xy</tspan></text></g><g transform="matrix(0.116883,0,0,1,332.052,0)"><text x="376px" y="204.832px" style="font-family:'Lato-Bold', 'Lato', sans-serif;font-weight:700;font-size:24px;stroke:#325fda;stroke-width:0.6px;stroke-linecap:butt;stroke-miterlimit:1.41421;">Pro<tspan x="413.728px 426.688px " y="204.832px 204.832px ">xy</tspan></text></g></g></svg>